<?xml version="1.0" encoding="UTF-8" standalone="no"?>
<!-- Created with Inkscape (http://www.inkscape.org/) -->

<svg
   xmlns:dc="http://purl.org/dc/elements/1.1/"
   xmlns:cc="http://creativecommons.org/ns#"
   xmlns:rdf="http://www.w3.org/1999/02/22-rdf-syntax-ns#"
   xmlns:svg="http://www.w3.org/2000/svg"
   xmlns="http://www.w3.org/2000/svg"
   xmlns:sodipodi="http://sodipodi.sourceforge.net/DTD/sodipodi-0.dtd"
   xmlns:inkscape="http://www.inkscape.org/namespaces/inkscape"
   width="744.09448819"
   height="1052.3622047"
   id="svg2"
   version="1.1"
   inkscape:version="0.48.5 r10040"
   sodipodi:docname="New document 1">
  <defs
     id="defs4">
    <marker
       inkscape:stockid="TriangleOutS"
       orient="auto"
       refY="0.0"
       refX="0.0"
       id="TriangleOutS"
       style="overflow:visible">
      <path
         id="path3923"
         d="M 5.77,0.0 L -2.88,5.0 L -2.88,-5.0 L 5.77,0.0 z "
         style="fill-rule:evenodd;stroke:#000000;stroke-width:1.0pt"
         transform="scale(0.2)" />
    </marker>
    <marker
       inkscape:stockid="TriangleOutL"
       orient="auto"
       refY="0.0"
       refX="0.0"
       id="TriangleOutL"
       style="overflow:visible">
      <path
         id="path3917"
         d="M 5.77,0.0 L -2.88,5.0 L -2.88,-5.0 L 5.77,0.0 z "
         style="fill-rule:evenodd;stroke:#000000;stroke-width:1.0pt"
         transform="scale(0.8)" />
    </marker>
    <marker
       inkscape:stockid="Arrow1Lend"
       orient="auto"
       refY="0.0"
       refX="0.0"
       id="Arrow1Lend"
       style="overflow:visible;">
      <path
         id="path3778"
         d="M 0.0,0.0 L 5.0,-5.0 L -12.5,0.0 L 5.0,5.0 L 0.0,0.0 z "
         style="fill-rule:evenodd;stroke:#000000;stroke-width:1.0pt;"
         transform="scale(0.8) rotate(180) translate(12.5,0)" />
    </marker>
    <marker
       inkscape:stockid="Tail"
       orient="auto"
       refY="0.0"
       refX="0.0"
       id="Tail"
       style="overflow:visible">
      <g
         id="g3811"
         transform="scale(-1.2)">
        <path
           id="path3813"
           d="M -3.8048674,-3.9585227 L 0.54352094,0"
           style="fill:none;fill-rule:evenodd;stroke:#000000;stroke-width:0.8;stroke-linecap:round" />
        <path
           id="path3815"
           d="M -1.2866832,-3.9585227 L 3.0617053,0"
           style="fill:none;fill-rule:evenodd;stroke:#000000;stroke-width:0.8;stroke-linecap:round" />
        <path
           id="path3817"
           d="M 1.3053582,-3.9585227 L 5.6537466,0"
           style="fill:none;fill-rule:evenodd;stroke:#000000;stroke-width:0.8;stroke-linecap:round" />
        <path
           id="path3819"
           d="M -3.8048674,4.1775838 L 0.54352094,0.21974226"
           style="fill:none;fill-rule:evenodd;stroke:#000000;stroke-width:0.8;stroke-linecap:round" />
        <path
           id="path3821"
           d="M -1.2866832,4.1775838 L 3.0617053,0.21974226"
           style="fill:none;fill-rule:evenodd;stroke:#000000;stroke-width:0.8;stroke-linecap:round" />
        <path
           id="path3823"
           d="M 1.3053582,4.1775838 L 5.6537466,0.21974226"
           style="fill:none;fill-rule:evenodd;stroke:#000000;stroke-width:0.8;stroke-linecap:round" />
      </g>
    </marker>
    <marker
       inkscape:stockid="Arrow2Lend"
       orient="auto"
       refY="0.0"
       refX="0.0"
       id="Arrow2Lend"
       style="overflow:visible;">
      <path
         id="path3796"
         style="fill-rule:evenodd;stroke-width:0.62500000;stroke-linejoin:round;"
         d="M 8.7185878,4.0337352 L -2.2072895,0.016013256 L 8.7185884,-4.0017078 C 6.9730900,-1.6296469 6.9831476,1.6157441 8.7185878,4.0337352 z "
         transform="scale(1.1) rotate(180) translate(1,0)" />
    </marker>
    <marker
       inkscape:stockid="Arrow1Lstart"
       orient="auto"
       refY="0.0"
       refX="0.0"
       id="Arrow1Lstart"
       style="overflow:visible">
      <path
         id="path3775"
         d="M 0.0,0.0 L 5.0,-5.0 L -12.5,0.0 L 5.0,5.0 L 0.0,0.0 z "
         style="fill-rule:evenodd;stroke:#000000;stroke-width:1.0pt"
         transform="scale(0.8) translate(12.5,0)" />
    </marker>
  </defs>
  <sodipodi:namedview
     id="base"
     pagecolor="#ffffff"
     bordercolor="#666666"
     borderopacity="1.0"
     inkscape:pageopacity="0.0"
     inkscape:pageshadow="2"
     inkscape:zoom="7.9195959"
     inkscape:cx="489.88466"
     inkscape:cy="615.49284"
     inkscape:document-units="px"
     inkscape:current-layer="layer1"
     showgrid="false"
     inkscape:window-width="987"
     inkscape:window-height="635"
     inkscape:window-x="125"
     inkscape:window-y="125"
     inkscape:window-maximized="0" />
  <metadata
     id="metadata7">
    <rdf:RDF>
      <cc:Work
         rdf:about="">
        <dc:format>image/svg+xml</dc:format>
        <dc:type
           rdf:resource="http://purl.org/dc/dcmitype/StillImage" />
        <dc:title></dc:title>
      </cc:Work>
    </rdf:RDF>
  </metadata>
  <g
     inkscape:label="Layer 1"
     inkscape:groupmode="layer"
     id="layer1">
    <path
       sodipodi:type="star"
       style="opacity:0.12000002;fill:#ffffff;fill-opacity:1;fill-rule:evenodd;stroke:#000000;stroke-width:0.40000001;stroke-linecap:square;stroke-linejoin:round;stroke-miterlimit:4;stroke-opacity:1;stroke-dasharray:none"
       id="path2985"
       sodipodi:sides="5"
       sodipodi:cx="317.14285"
       sodipodi:cy="463.79074"
       sodipodi:r1="151.03893"
       sodipodi:r2="75.519463"
       sodipodi:arg1="0.76867731"
       sodipodi:arg2="1.3969958"
       inkscape:flatsided="false"
       inkscape:rounded="0"
       inkscape:randomized="0"
       d="m 425.71429,568.79074 -95.51209,-30.61826 -79.36987,61.32262 -0.39515,-100.29896 -82.84792,-56.5355 95.26787,-31.3699 28.16704,-96.26347 59.27394,80.91129 100.2561,-2.9586 -58.63456,81.37583 z"
       inkscape:transform-center-x="8.0711158"
       inkscape:transform-center-y="6.5295581"
       transform="matrix(1,0,0,-1,0,914.52236)" />
    <path
       sodipodi:type="star"
       style="fill:#000000;fill-opacity:1;fill-rule:evenodd;stroke:#000000;stroke-width:0.40000001;stroke-linecap:square;stroke-linejoin:round;stroke-miterlimit:4;stroke-opacity:1;stroke-dasharray:none"
       id="path2987"
       sodipodi:sides="3"
       sodipodi:cx="259.28571"
       sodipodi:cy="425.93362"
       sodipodi:r1="30.976901"
       sodipodi:r2="60.929531"
       sodipodi:arg1="-1.199763"
       sodipodi:arg2="0.059440614"
       inkscape:flatsided="false"
       inkscape:rounded="0"
       inkscape:randomized="0"
       d="m 270.51727,397.0646 49.59036,32.48858 -41.4364,20.54177 -52.93111,26.70223 2.9285,-46.15586 3.34075,-59.19081 z"
       inkscape:transform-center-x="11.092126"
       inkscape:transform-center-y="-28.804613"
       transform="matrix(0.86126792,0.50815113,-0.50815113,0.86126792,311.6215,-6.4813845)" />
    <path
       style="fill:none;stroke:#55c56a;stroke-width:6.87599993;stroke-linecap:round;stroke-linejoin:bevel;stroke-miterlimit:4;stroke-opacity:0.65294116999999996;stroke-dasharray:none;marker-end:url(#TriangleOutS)"
       d="m 433.49792,432.37531 -0.1614,-10.34662"
       id="path5153"
       inkscape:connector-curvature="0"
       sodipodi:nodetypes="cc" />
    <path
       style="fill:#4a9645;fill-opacity:1;stroke:#000000;stroke-width:1px;stroke-linecap:butt;stroke-linejoin:miter;stroke-opacity:1"
       d="m 478.93858,430.99007 -0.18939,-0.69246 2e-5,-3.9275 -2.11224,-0.0586 -0.35,-0.5096 0.27433,-0.61356 0.48847,-0.70772 2.76868,-3.47368 0.6354,-0.30577 0.57899,0.34386 2.48291,3.19608 0.60565,0.75535 0.18365,0.78721 -0.44734,0.5427 -2.07803,0.0437 -2e-5,3.73813 -0.25255,0.75759 -0.69666,0.39796 -1.07157,0.0216 z"
       id="path6535"
       inkscape:connector-curvature="0"
       sodipodi:nodetypes="cccccccccccccccccccc"
       inkscape:export-filename="C:\Users\dvoong\Desktop\up-arrow2.png"
       inkscape:export-xdpi="419.29001"
       inkscape:export-ydpi="419.29001" />
    <path
       style="fill:#a73434;fill-opacity:1;stroke:#000000;stroke-width:1px;stroke-linecap:butt;stroke-linejoin:miter;stroke-opacity:1"
       d="m 478.78071,439.94803 -0.18939,0.69246 2e-5,3.9275 -2.11224,0.0586 -0.35,0.5096 0.27433,0.61356 0.48847,0.70772 2.76868,3.47368 0.6354,0.30577 0.57899,-0.34386 2.48291,-3.19608 0.60565,-0.75535 0.18365,-0.78721 -0.44734,-0.5427 -2.07803,-0.0437 -2e-5,-3.73813 -0.25255,-0.75759 -0.69666,-0.39796 -1.07157,-0.0216 z"
       id="path6535-3"
       inkscape:connector-curvature="0"
       sodipodi:nodetypes="cccccccccccccccccccc"
       inkscape:export-filename="C:\Users\dvoong\Desktop\down-arrow2.png"
       inkscape:export-xdpi="419.29001"
       inkscape:export-ydpi="419.29001" />
    <path
       sodipodi:type="arc"
       style="fill:#000000;fill-opacity:1;fill-rule:evenodd;stroke:#000000;stroke-width:0;stroke-linecap:round;stroke-linejoin:bevel;stroke-miterlimit:4;stroke-opacity:1;stroke-dasharray:none"
       id="path6557"
       sodipodi:cx="499.89923"
       sodipodi:cy="429.66626"
       sodipodi:rx="0.63134533"
       sodipodi:ry="0.75761443"
       d="m 500.53058,429.66626 a 0.63134533,0.75761443 0 1 1 -1.26269,0 0.63134533,0.75761443 0 1 1 1.26269,0 z"
       transform="matrix(2.6856735,0,0,2.2381324,-862.34356,-526.03643)" />
    <path
       style="fill:#4d4d4d;fill-opacity:1;stroke:#000000;stroke-width:1px;stroke-linecap:butt;stroke-linejoin:miter;stroke-opacity:1"
       d="m 491.72328,430.93813 -0.18939,-0.69246 2e-5,-3.9275 -2.11224,-0.0586 -0.35,-0.5096 0.27433,-0.61356 0.48847,-0.70772 2.76868,-3.47368 0.6354,-0.30577 0.57899,0.34386 2.48291,3.19608 0.60565,0.75535 0.18365,0.78721 -0.44734,0.5427 -2.07803,0.0437 -2e-5,3.73813 -0.25255,0.75759 -0.69666,0.39796 -1.07157,0.0216 z"
       id="path6535-1"
       inkscape:connector-curvature="0"
       sodipodi:nodetypes="cccccccccccccccccccc" />
    <path
       style="fill:#626262;stroke:#000000;stroke-width:1px;stroke-linecap:butt;stroke-linejoin:miter;stroke-opacity:1;fill-opacity:1"
       d="m 511.13719,433.0124 2.65165,-3.28299 3.15673,3.15673 z"
       id="path6579"
       inkscape:connector-curvature="0"
       sodipodi:nodetypes="cccc"
       inkscape:export-xdpi="419.29001"
       inkscape:export-ydpi="419.29001"
       inkscape:export-filename="C:\Users\dvoong\Desktop\up-arrow.png" />
    <path
       sodipodi:type="arc"
       style="fill:#262626;fill-opacity:1;fill-rule:evenodd;stroke:#000000;stroke-width:0;stroke-linecap:round;stroke-linejoin:bevel;stroke-miterlimit:4;stroke-opacity:1;stroke-dasharray:none"
       id="path6557-6"
       sodipodi:cx="499.89923"
       sodipodi:cy="429.66626"
       sodipodi:rx="0.63134533"
       sodipodi:ry="0.75761443"
       d="m 500.53058,429.66626 a 0.63134533,0.75761443 0 1 1 -1.26269,0 0.63134533,0.75761443 0 1 1 1.26269,0 z"
       transform="matrix(1.9856449,0,0,1.6547566,-478.77038,-275.89728)"
       inkscape:export-filename="C:\Users\dvoong\Desktop\blob.png"
       inkscape:export-xdpi="419.29001"
       inkscape:export-ydpi="419.29001" />
    <path
       style="fill:#626262;stroke:#000000;stroke-width:1px;stroke-linecap:butt;stroke-linejoin:miter;stroke-opacity:1;fill-opacity:1"
       d="m 511.26345,437.17929 2.65165,3.28299 3.15673,-3.15673 z"
       id="path6579-8"
       inkscape:connector-curvature="0"
       sodipodi:nodetypes="cccc"
       inkscape:export-filename="C:\Users\dvoong\Desktop\down-arrow.png"
       inkscape:export-xdpi="419.29001"
       inkscape:export-ydpi="419.29001" />
  </g>
</svg>
